<?xml version="1.0" encoding="utf-8"?>
<!-- Generator: Adobe Illustrator 17.0.0, SVG Export Plug-In . SVG Version: 6.00 Build 0)  -->
<!DOCTYPE svg PUBLIC "-//W3C//DTD SVG 1.1//EN" "http://www.w3.org/Graphics/SVG/1.1/DTD/svg11.dtd">
<svg version="1.1" id="Layer_1" xmlns="http://www.w3.org/2000/svg" xmlns:xlink="http://www.w3.org/1999/xlink" x="0px" y="0px"
	 width="50px" height="50px" viewBox="0 0 50 50" enable-background="new 0 0 50 50" xml:space="preserve">
<path fill="none" stroke="#808285" stroke-width="0.25" stroke-miterlimit="10" d="M11.231,22.173
	c0.495,0.712,0.785,1.576,0.785,2.509c0,2.43-1.97,4.399-4.399,4.399s-4.399-1.97-4.399-4.399c0-1.899,1.203-3.516,2.888-4.133"/>
<path fill="none" stroke="#009444" stroke-width="0.5" stroke-miterlimit="10" d="M5.098,23.846C5.65,24.2,6.18,24.59,6.668,25.028
	c0.47,0.423,0.828,0.944,1.279,1.376c0.342-0.835,0.704-1.654,1.189-2.418c0.409-0.643,0.879-1.36,1.574-1.722
	c0.405-0.211,0.857-0.267,1.306-0.31"/>
<rect x="13.036" y="23.452" fill="none" width="34.469" height="5.905"/>
<text transform="matrix(1 0 0 1 13.0359 27.1013)"><tspan x="0" y="0" fill="#808285" font-family="'Raleway-Light'" font-size="5">SIMPLE</tspan><tspan x="17.801" y="0" fill="#009444" font-family="'Raleway-SemiBold'" font-size="5">DONE</tspan></text>
</svg>
